<svg version="1.1" id="Layer_1" xmlns="http://www.w3.org/2000/svg" xmlns:xlink="http://www.w3.org/1999/xlink" x="0px" y="0px"
	 width="100%" viewBox="0 0 274 77" enable-background="new 0 0 274 77" xml:space="preserve">
<path fill="#1E232A" opacity="1.000000" stroke="none" 
	d="
M193.000000,78.000000 
	C128.666687,78.000000 64.833382,78.000000 1.000051,78.000000 
	C1.000034,52.333366 1.000034,26.666731 1.000017,1.000072 
	C92.333275,1.000048 183.666550,1.000048 274.999878,1.000024 
	C274.999908,26.666594 274.999908,52.333187 274.999939,77.999893 
	C247.833328,78.000000 220.666672,78.000000 193.000000,78.000000 
M152.925278,36.836563 
	C152.344803,36.372730 151.764328,35.908901 151.069519,35.353706 
	C151.695190,34.871128 152.215652,34.472744 152.732910,34.070259 
	C156.028641,31.505878 157.772675,28.259886 156.328415,24.112003 
	C154.920273,20.067827 151.490906,18.986074 147.569489,18.982969 
	C143.776245,18.979967 139.983017,18.982319 135.983505,18.982319 
	C134.123322,30.730291 132.318604,42.127914 130.449890,53.929798 
	C135.439484,53.929798 140.085693,54.283783 144.657852,53.852589 
	C152.955704,53.070026 157.158920,44.915707 152.925278,36.836563 
M99.870590,19.004795 
	C99.338928,19.737434 98.457489,20.413500 98.328445,21.211266 
	C96.590317,31.957260 94.956970,42.720203 93.270378,53.655708 
	C95.530060,53.655708 97.560234,53.655708 99.517334,53.655708 
	C100.156204,49.893021 100.733482,46.493065 101.347153,42.878773 
	C108.758919,43.145889 106.821075,50.649551 110.450272,53.814301 
	C112.331802,53.814301 114.428589,53.814301 116.797798,53.814301 
	C115.346321,50.339920 114.287842,46.979813 112.589142,43.982552 
	C111.025383,41.223373 111.397758,39.296989 113.371582,36.988529 
	C115.900642,34.030693 118.050079,30.748260 120.335785,27.642782 
	C113.898361,24.879337 111.807175,29.503298 109.039833,33.165783 
	C107.429726,35.296696 106.388535,38.877167 102.230301,37.059231 
	C103.147957,31.097597 104.042908,25.283499 105.012924,18.981718 
	C103.327728,18.981718 102.032097,18.981718 99.870590,19.004795 
M237.806549,46.783772 
	C234.650070,42.299213 235.241196,38.365288 239.136856,34.505188 
	C241.070755,32.588947 242.385406,30.047779 244.116501,27.596333 
	C238.005417,26.597532 238.007172,26.598822 234.935074,30.773993 
	C233.653412,32.515854 232.548630,34.444435 231.011780,35.922523 
	C229.947556,36.946072 228.281754,37.344124 225.974777,38.463013 
	C227.053589,31.241640 227.923660,25.417534 228.790680,19.613869 
	C222.737686,18.615002 222.743118,18.615740 222.028473,23.872549 
	C221.871902,25.024317 221.655975,26.167906 221.476837,27.316736 
	C220.110260,36.080498 218.746063,44.844624 217.352921,53.789635 
	C219.789200,53.789635 221.408890,53.789635 223.265579,53.789635 
	C223.948776,50.250633 224.601959,46.867100 225.253754,43.490772 
	C230.963791,41.715508 230.717865,46.612431 231.986496,49.310818 
	C234.533966,54.729248 234.405090,54.818203 240.257706,53.010113 
	C239.531906,51.158535 238.814697,49.328903 237.806549,46.783772 
M18.417038,54.011021 
	C26.024324,53.355858 29.969805,49.719116 29.280256,42.268745 
	C26.891239,43.802818 25.212202,45.189041 23.294123,46.030170 
	C21.172289,46.960659 18.851883,47.714306 16.574778,47.857285 
	C15.829891,47.904057 14.132648,45.687748 14.266380,44.694237 
	C15.038667,38.956818 15.978349,33.208958 17.465096,27.625399 
	C17.808426,26.336004 20.455687,25.065027 22.140770,24.919323 
	C23.450130,24.806107 24.853924,26.575453 26.321404,27.291546 
	C27.990351,28.105949 29.776743,28.679674 31.512083,29.358015 
	C31.873030,27.759140 32.943016,25.863825 32.427715,24.631302 
	C31.666536,22.810690 30.063292,20.910398 28.319719,20.007975 
	C21.268736,16.358583 12.421060,20.386045 10.583678,28.112312 
	C9.398627,33.095497 8.581213,38.208767 8.117672,43.310860 
	C7.425164,50.933144 9.872243,53.484413 18.417038,54.011021 
M69.724182,30.157446 
	C65.350456,35.004803 65.049698,41.176632 65.397942,47.011417 
	C65.538330,49.363716 68.637924,52.602448 71.113625,53.550827 
	C78.231178,56.277386 85.277779,52.064095 87.222023,44.620029 
	C87.932190,41.900951 88.439278,39.105610 88.759384,36.313011 
	C89.316833,31.449883 86.061920,27.124758 81.130951,27.189497 
	C77.508957,27.237051 73.906555,28.776049 69.724182,30.157446 
M161.035309,40.415516 
	C159.612061,48.078083 161.134949,52.075626 166.084534,53.669643 
	C172.458038,55.722233 179.743134,52.796993 181.784958,46.739082 
	C183.085098,42.881683 183.710678,38.655495 183.812927,34.573982 
	C183.924011,30.139450 180.895004,27.627003 176.638916,27.092436 
	C168.834732,26.112226 162.174316,29.039946 161.035309,40.415516 
M37.719746,36.437675 
	C37.244041,39.039452 36.657543,41.626789 36.316204,44.246075 
	C35.651196,49.349144 38.899834,53.465324 43.988255,53.943783 
	C48.810764,54.397232 53.736160,53.906761 56.357944,49.405968 
	C59.560963,43.907364 61.204235,37.683491 58.879898,31.380110 
	C58.256794,29.690310 55.972462,28.118885 54.110088,27.468277 
	C47.123589,25.027588 40.599327,28.487267 37.719746,36.437675 
M190.528015,36.300808 
	C190.079208,38.910275 189.527100,41.507095 189.205643,44.132160 
	C188.714859,48.140045 190.035614,51.336681 193.859589,53.133240 
	C200.439117,56.224388 208.667755,52.727966 210.864731,45.779541 
	C211.607025,43.431889 211.829529,40.914783 212.231613,38.465603 
	C213.497467,30.755325 209.959671,26.703241 202.192078,26.999548 
	C196.444290,27.218807 192.452118,29.852358 190.528015,36.300808 
z"/>
<path fill="#F6F6F6" opacity="1.000000" stroke="none" 
	d="
M153.178665,37.118774 
	C157.158920,44.915707 152.955704,53.070026 144.657852,53.852589 
	C140.085693,54.283783 135.439484,53.929798 130.449890,53.929798 
	C132.318604,42.127914 134.123322,30.730291 135.983505,18.982319 
	C139.983017,18.982319 143.776245,18.979967 147.569489,18.982969 
	C151.490906,18.986074 154.920273,20.067827 156.328415,24.112003 
	C157.772675,28.259886 156.028641,31.505878 152.732910,34.070259 
	C152.215652,34.472744 151.695190,34.871128 151.069519,35.353706 
	C151.764328,35.908901 152.344803,36.372730 153.178665,37.118774 
M145.950012,47.756271 
	C146.751556,45.497608 148.768097,42.770576 148.113739,41.073158 
	C146.518021,36.933689 142.505951,38.492996 138.948135,38.668560 
	C138.487381,42.007835 138.055862,45.135220 137.539566,48.877071 
	C140.722321,48.540710 142.971252,48.303036 145.950012,47.756271 
M141.959045,24.451015 
	C141.184036,27.132494 140.409027,29.813974 139.513733,32.911682 
	C142.069473,32.911682 144.217468,33.536621 145.550674,32.761002 
	C147.416519,31.675501 148.675140,29.546246 150.193542,27.863522 
	C148.552109,26.697472 146.972397,25.424400 145.236084,24.422825 
	C144.619812,24.067329 143.622528,24.372328 141.959045,24.451015 
z"/>
<path fill="#F5F5F6" opacity="1.000000" stroke="none" 
	d="
M100.303528,18.993256 
	C102.032097,18.981718 103.327728,18.981718 105.012924,18.981718 
	C104.042908,25.283499 103.147957,31.097597 102.230301,37.059231 
	C106.388535,38.877167 107.429726,35.296696 109.039833,33.165783 
	C111.807175,29.503298 113.898361,24.879337 120.335785,27.642782 
	C118.050079,30.748260 115.900642,34.030693 113.371582,36.988529 
	C111.397758,39.296989 111.025383,41.223373 112.589142,43.982552 
	C114.287842,46.979813 115.346321,50.339920 116.797798,53.814301 
	C114.428589,53.814301 112.331802,53.814301 110.450272,53.814301 
	C106.821075,50.649551 108.758919,43.145889 101.347153,42.878773 
	C100.733482,46.493065 100.156204,49.893021 99.517334,53.655708 
	C97.560234,53.655708 95.530060,53.655708 93.270378,53.655708 
	C94.956970,42.720203 96.590317,31.957260 98.328445,21.211266 
	C98.457489,20.413500 99.338928,19.737434 100.303528,18.993256 
z"/>
<path fill="#BB011E" opacity="1.000000" stroke="none" 
	d="
M237.952026,47.141518 
	C238.814697,49.328903 239.531906,51.158535 240.257706,53.010113 
	C234.405090,54.818203 234.533966,54.729248 231.986496,49.310818 
	C230.717865,46.612431 230.963791,41.715508 225.253754,43.490772 
	C224.601959,46.867100 223.948776,50.250633 223.265579,53.789635 
	C221.408890,53.789635 219.789200,53.789635 217.352921,53.789635 
	C218.746063,44.844624 220.110260,36.080498 221.476837,27.316736 
	C221.655975,26.167906 221.871902,25.024317 222.028473,23.872549 
	C222.743118,18.615740 222.737686,18.615002 228.790680,19.613869 
	C227.923660,25.417534 227.053589,31.241640 225.974777,38.463013 
	C228.281754,37.344124 229.947556,36.946072 231.011780,35.922523 
	C232.548630,34.444435 233.653412,32.515854 234.935074,30.773993 
	C238.007172,26.598822 238.005417,26.597532 244.116501,27.596333 
	C242.385406,30.047779 241.070755,32.588947 239.136856,34.505188 
	C235.241196,38.365288 234.650070,42.299213 237.952026,47.141518 
z"/>
<path fill="#22AB4B" opacity="1.000000" stroke="none" 
	d="
M17.993658,54.011688 
	C9.872243,53.484413 7.425164,50.933144 8.117672,43.310860 
	C8.581213,38.208767 9.398627,33.095497 10.583678,28.112312 
	C12.421060,20.386045 21.268736,16.358583 28.319719,20.007975 
	C30.063292,20.910398 31.666536,22.810690 32.427715,24.631302 
	C32.943016,25.863825 31.873030,27.759140 31.512085,29.358015 
	C29.776743,28.679674 27.990351,28.105949 26.321404,27.291546 
	C24.853924,26.575453 23.450130,24.806107 22.140770,24.919323 
	C20.455687,25.065027 17.808426,26.336004 17.465096,27.625399 
	C15.978349,33.208958 15.038667,38.956818 14.266380,44.694237 
	C14.132648,45.687748 15.829891,47.904057 16.574778,47.857285 
	C18.851883,47.714306 21.172289,46.960659 23.294123,46.030170 
	C25.212202,45.189041 26.891239,43.802818 29.280256,42.268745 
	C29.969805,49.719116 26.024324,53.355858 17.993658,54.011688 
z"/>
<path fill="#F3F3F4" opacity="1.000000" stroke="none" 
	d="
M70.009796,29.903915 
	C73.906555,28.776049 77.508957,27.237051 81.130951,27.189497 
	C86.061920,27.124758 89.316833,31.449883 88.759384,36.313011 
	C88.439278,39.105610 87.932190,41.900951 87.222023,44.620029 
	C85.277779,52.064095 78.231178,56.277386 71.113625,53.550827 
	C68.637924,52.602448 65.538330,49.363716 65.397942,47.011417 
	C65.049698,41.176632 65.350456,35.004803 70.009796,29.903915 
M80.938629,44.929611 
	C81.324776,42.473057 82.153717,39.978508 81.947281,37.572800 
	C81.800415,35.861263 80.153023,32.840485 79.360390,32.899277 
	C77.214439,33.058449 74.591179,34.063412 73.251755,35.654392 
	C72.045670,37.086983 71.953560,39.746407 71.989845,41.854057 
	C72.025612,43.931160 72.839378,45.994865 73.311806,48.064449 
	C75.762497,47.269295 78.213181,46.474144 80.938629,44.929611 
z"/>
<path fill="#F3F4F4" opacity="1.000000" stroke="none" 
	d="
M161.057999,39.997353 
	C162.174316,29.039946 168.834732,26.112226 176.638916,27.092436 
	C180.895004,27.627003 183.924011,30.139450 183.812927,34.573982 
	C183.710678,38.655495 183.085098,42.881683 181.784958,46.739082 
	C179.743134,52.796993 172.458038,55.722233 166.084534,53.669643 
	C161.134949,52.075626 159.612061,48.078083 161.057999,39.997353 
M169.888870,33.565857 
	C168.896133,36.806225 167.491882,39.996864 167.091644,43.308834 
	C166.903519,44.865543 168.953049,48.180355 169.463226,48.078072 
	C171.760025,47.617603 174.424072,46.695084 175.872742,45.008793 
	C177.077438,43.606461 176.861206,40.919029 177.121597,38.782223 
	C177.840424,32.883163 176.562592,31.812757 169.888870,33.565857 
z"/>
<path fill="#22A94A" opacity="1.000000" stroke="none" 
	d="
M37.817982,36.050964 
	C40.599327,28.487267 47.123589,25.027588 54.110088,27.468277 
	C55.972462,28.118885 58.256794,29.690310 58.879898,31.380110 
	C61.204235,37.683491 59.560963,43.907364 56.357944,49.405968 
	C53.736160,53.906761 48.810764,54.397232 43.988255,53.943783 
	C38.899834,53.465324 35.651196,49.349144 36.316204,44.246075 
	C36.657543,41.626789 37.244041,39.039452 37.817982,36.050964 
M53.583630,35.859619 
	C52.049660,34.690529 50.297344,32.380379 49.033371,32.622250 
	C47.180119,32.976887 45.182083,34.873203 44.163704,36.641315 
	C43.160034,38.383907 43.233276,40.776157 42.953999,42.899155 
	C42.602749,45.569271 42.971817,48.558472 46.208279,48.287029 
	C48.283398,48.112991 50.862484,46.174873 51.969978,44.294048 
	C53.225163,42.162399 53.088634,39.211266 53.583630,35.859619 
z"/>
<path fill="#BA021F" opacity="1.000000" stroke="none" 
	d="
M190.644287,35.918015 
	C192.452118,29.852358 196.444290,27.218807 202.192078,26.999548 
	C209.959671,26.703241 213.497467,30.755325 212.231613,38.465603 
	C211.829529,40.914783 211.607025,43.431889 210.864731,45.779541 
	C208.667755,52.727966 200.439117,56.224388 193.859589,53.133240 
	C190.035614,51.336681 188.714859,48.140045 189.205643,44.132160 
	C189.527100,41.507095 190.079208,38.910275 190.644287,35.918015 
M204.609985,45.732403 
	C205.114288,43.133739 206.105392,40.507797 205.961807,37.945435 
	C205.855759,36.052879 204.270462,34.243221 203.344223,32.396637 
	C201.204163,33.548134 198.607971,34.287998 197.074707,35.987076 
	C195.937775,37.246975 195.861237,39.759018 195.897308,41.702423 
	C195.936432,43.810577 196.653244,45.906151 197.074524,48.007202 
	C199.436432,47.467190 201.798355,46.927174 204.609985,45.732403 
z"/>
<path fill="#2C3238" opacity="1.000000" stroke="none" 
	d="
M145.585083,47.910820 
	C142.971252,48.303036 140.722321,48.540710 137.539566,48.877071 
	C138.055862,45.135220 138.487381,42.007835 138.948135,38.668560 
	C142.505951,38.492996 146.518021,36.933689 148.113739,41.073158 
	C148.768097,42.770576 146.751556,45.497608 145.585083,47.910820 
z"/>
<path fill="#2A3037" opacity="1.000000" stroke="none" 
	d="
M142.379120,24.413410 
	C143.622528,24.372328 144.619812,24.067329 145.236084,24.422825 
	C146.972397,25.424400 148.552109,26.697472 150.193542,27.863523 
	C148.675140,29.546246 147.416519,31.675501 145.550674,32.761002 
	C144.217468,33.536621 142.069473,32.911682 139.513733,32.911682 
	C140.409027,29.813974 141.184036,27.132494 142.379120,24.413410 
z"/>
<path fill="#242A31" opacity="1.000000" stroke="none" 
	d="
M80.801254,45.304302 
	C78.213181,46.474144 75.762497,47.269295 73.311806,48.064449 
	C72.839378,45.994865 72.025612,43.931160 71.989845,41.854057 
	C71.953560,39.746407 72.045670,37.086983 73.251755,35.654392 
	C74.591179,34.063412 77.214439,33.058449 79.360390,32.899277 
	C80.153023,32.840485 81.800415,35.861263 81.947281,37.572800 
	C82.153717,39.978508 81.324776,42.473057 80.801254,45.304302 
z"/>
<path fill="#242A31" opacity="1.000000" stroke="none" 
	d="
M170.189545,33.330151 
	C176.562592,31.812757 177.840424,32.883163 177.121597,38.782223 
	C176.861206,40.919029 177.077438,43.606461 175.872742,45.008793 
	C174.424072,46.695084 171.760025,47.617603 169.463226,48.078072 
	C168.953049,48.180355 166.903519,44.865543 167.091644,43.308834 
	C167.491882,39.996864 168.896133,36.806225 170.189545,33.330151 
z"/>
<path fill="#1D282B" opacity="1.000000" stroke="none" 
	d="
M53.570412,36.238022 
	C53.088634,39.211266 53.225163,42.162399 51.969978,44.294048 
	C50.862484,46.174873 48.283398,48.112991 46.208279,48.287029 
	C42.971817,48.558472 42.602749,45.569271 42.953999,42.899155 
	C43.233276,40.776157 43.160034,38.383907 44.163704,36.641315 
	C45.182083,34.873203 47.180119,32.976887 49.033371,32.622250 
	C50.297344,32.380379 52.049660,34.690529 53.570412,36.238022 
z"/>
<path fill="#252129" opacity="1.000000" stroke="none" 
	d="
M204.385132,46.059784 
	C201.798355,46.927174 199.436432,47.467190 197.074524,48.007202 
	C196.653244,45.906151 195.936432,43.810577 195.897308,41.702423 
	C195.861237,39.759018 195.937775,37.246975 197.074707,35.987076 
	C198.607971,34.287998 201.204163,33.548134 203.344223,32.396633 
	C204.270462,34.243221 205.855759,36.052879 205.961807,37.945435 
	C206.105392,40.507797 205.114288,43.133739 204.385132,46.059784 
z"/>
</svg>