<svg version="1.1" id="Layer_1" xmlns="http://www.w3.org/2000/svg" xmlns:xlink="http://www.w3.org/1999/xlink" x="0px" y="0px"
	 width="100%" viewBox="0 0 274 77" enable-background="new 0 0 274 77" xml:space="preserve">
<path fill="#1E232A" opacity="1.000000" stroke="none" 
	d="
M193.000000,78.000000 
	C128.666687,78.000000 64.833382,78.000000 1.000051,78.000000 
	C1.000034,52.333366 1.000034,26.666731 1.000017,1.000072 
	C92.333275,1.000048 183.666550,1.000048 274.999878,1.000024 
	C274.999908,26.666594 274.999908,52.333187 274.999939,77.999893 
	C247.833328,78.000000 220.666672,78.000000 193.000000,78.000000 
M172.925278,36.836567 
	C172.344803,36.372734 171.764328,35.908905 171.069519,35.353725 
	C171.695206,34.871140 172.215652,34.472748 172.732910,34.070255 
	C176.028641,31.505880 177.772690,28.259880 176.328415,24.112003 
	C174.920273,20.067827 171.490906,18.986074 167.569489,18.982969 
	C163.776245,18.979967 159.983017,18.982319 155.983444,18.982319 
	C154.123260,30.730282 152.318542,42.127903 150.449814,53.929798 
	C155.439484,53.929798 160.085693,54.283783 164.657852,53.852592 
	C172.955704,53.070030 177.158920,44.915707 172.925278,36.836567 
M99.870590,19.004795 
	C99.338928,19.737434 98.457489,20.413500 98.328445,21.211266 
	C96.590317,31.957260 94.956970,42.720203 93.270378,53.655708 
	C95.530060,53.655708 97.560234,53.655708 99.517334,53.655708 
	C100.156204,49.893021 100.733482,46.493065 101.347153,42.878773 
	C108.758919,43.145889 106.821075,50.649551 110.450272,53.814301 
	C112.331802,53.814301 114.428589,53.814301 116.797798,53.814301 
	C115.346321,50.339920 114.287842,46.979813 112.589142,43.982552 
	C111.025383,41.223373 111.397758,39.296989 113.371582,36.988529 
	C115.900642,34.030693 118.050079,30.748260 120.335785,27.642782 
	C113.898361,24.879337 111.807175,29.503298 109.039833,33.165783 
	C107.429726,35.296696 106.388535,38.877167 102.230301,37.059231 
	C103.147957,31.097597 104.042908,25.283499 105.012924,18.981718 
	C103.327728,18.981718 102.032097,18.981718 99.870590,19.004795 
M257.806549,46.783756 
	C254.650055,42.299198 255.241135,38.365269 259.136841,34.505161 
	C261.070740,32.588932 262.385376,30.047729 264.116394,27.596296 
	C258.005463,26.597536 258.007233,26.598827 254.935074,30.774031 
	C253.653412,32.515896 252.548584,34.444450 251.011749,35.922535 
	C249.947510,36.946068 248.281738,37.344128 245.974731,38.463005 
	C247.053314,31.243330 247.923553,25.418228 248.790695,19.613850 
	C242.737686,18.615025 242.743118,18.615763 242.028473,23.872576 
	C241.871902,25.024343 241.655945,26.167927 241.476807,27.316759 
	C240.110245,36.080517 238.746033,44.844639 237.352890,53.789627 
	C239.791306,53.789627 241.409790,53.789627 243.265610,53.789627 
	C243.948807,50.250622 244.601990,46.867088 245.253769,43.490749 
	C250.963791,41.715542 250.717880,46.612442 251.986511,49.310829 
	C254.534119,54.729595 254.404770,54.818314 260.257721,53.010094 
	C259.531921,51.158516 258.814697,49.328892 257.806549,46.783756 
M18.417038,54.011021 
	C26.024324,53.355858 29.969805,49.719116 29.280256,42.268745 
	C26.891239,43.802818 25.212202,45.189041 23.294123,46.030170 
	C21.172289,46.960659 18.851883,47.714306 16.574778,47.857285 
	C15.829891,47.904057 14.132648,45.687748 14.266380,44.694237 
	C15.038667,38.956818 15.978349,33.208958 17.465096,27.625399 
	C17.808426,26.336004 20.455687,25.065027 22.140770,24.919323 
	C23.450130,24.806107 24.853924,26.575453 26.321404,27.291546 
	C27.990351,28.105949 29.776743,28.679674 31.512083,29.358015 
	C31.873030,27.759140 32.943016,25.863825 32.427715,24.631302 
	C31.666536,22.810690 30.063292,20.910398 28.319719,20.007975 
	C21.268736,16.358583 12.421060,20.386045 10.583678,28.112312 
	C9.398627,33.095497 8.581213,38.208767 8.117672,43.310860 
	C7.425164,50.933144 9.872243,53.484413 18.417038,54.011021 
M69.724182,30.157446 
	C65.350456,35.004803 65.049698,41.176632 65.397942,47.011417 
	C65.538330,49.363716 68.637924,52.602448 71.113625,53.550827 
	C78.231178,56.277386 85.277779,52.064095 87.222023,44.620029 
	C87.932190,41.900951 88.439278,39.105610 88.759384,36.313011 
	C89.316833,31.449883 86.061920,27.124758 81.130951,27.189497 
	C77.508957,27.237051 73.906555,28.776049 69.724182,30.157446 
M181.035309,40.415516 
	C179.612061,48.078083 181.134933,52.075623 186.084534,53.669647 
	C192.458038,55.722240 199.743149,52.796989 201.784958,46.739082 
	C203.085083,42.881687 203.710678,38.655495 203.812927,34.573982 
	C203.924011,30.139450 200.895004,27.627003 196.638916,27.092438 
	C188.834732,26.112232 182.174316,29.039936 181.035309,40.415516 
M37.719746,36.437675 
	C37.244041,39.039452 36.657543,41.626789 36.316204,44.246075 
	C35.651196,49.349144 38.899834,53.465324 43.988255,53.943783 
	C48.810764,54.397232 53.736160,53.906761 56.357944,49.405968 
	C59.560963,43.907364 61.204235,37.683491 58.879898,31.380110 
	C58.256794,29.690310 55.972462,28.118885 54.110088,27.468277 
	C47.123589,25.027588 40.599327,28.487267 37.719746,36.437675 
M210.528030,36.300808 
	C210.079224,38.910278 209.527115,41.507095 209.205658,44.132160 
	C208.714859,48.140045 210.035614,51.336681 213.859589,53.133240 
	C220.439117,56.224388 228.667740,52.727962 230.864731,45.779537 
	C231.607025,43.431885 231.829498,40.914776 232.231613,38.465603 
	C233.497437,30.755322 229.959671,26.703241 222.192078,26.999548 
	C216.444290,27.218807 212.452118,29.852358 210.528030,36.300808 
z"/>
<path fill="#F6F6F6" opacity="1.000000" stroke="none" 
	d="
M173.178665,37.118774 
	C177.158920,44.915707 172.955704,53.070030 164.657852,53.852592 
	C160.085693,54.283783 155.439484,53.929798 150.449814,53.929798 
	C152.318542,42.127903 154.123260,30.730282 155.983444,18.982319 
	C159.983017,18.982319 163.776245,18.979967 167.569489,18.982969 
	C171.490906,18.986074 174.920273,20.067827 176.328415,24.112003 
	C177.772690,28.259880 176.028641,31.505880 172.732910,34.070255 
	C172.215652,34.472748 171.695206,34.871140 171.069519,35.353725 
	C171.764328,35.908905 172.344803,36.372734 173.178665,37.118774 
M165.950012,47.756271 
	C166.751572,45.497608 168.768097,42.770576 168.113754,41.073154 
	C166.518021,36.933689 162.505951,38.492996 158.948105,38.668564 
	C158.487335,42.007828 158.055817,45.135212 157.539505,48.877079 
	C160.722321,48.540707 162.971252,48.303036 165.950012,47.756271 
M161.959045,24.451017 
	C161.184036,27.132496 160.409042,29.813974 159.513733,32.911682 
	C162.069473,32.911682 164.217468,33.536625 165.550674,32.761005 
	C167.416519,31.675507 168.675140,29.546249 170.193542,27.863527 
	C168.552094,26.697479 166.972397,25.424404 165.236084,24.422823 
	C164.619812,24.067324 163.622528,24.372328 161.959045,24.451017 
z"/>
<path fill="#F5F5F6" opacity="1.000000" stroke="none" 
	d="
M100.303528,18.993256 
	C102.032097,18.981718 103.327728,18.981718 105.012924,18.981718 
	C104.042908,25.283499 103.147957,31.097597 102.230301,37.059231 
	C106.388535,38.877167 107.429726,35.296696 109.039833,33.165783 
	C111.807175,29.503298 113.898361,24.879337 120.335785,27.642782 
	C118.050079,30.748260 115.900642,34.030693 113.371582,36.988529 
	C111.397758,39.296989 111.025383,41.223373 112.589142,43.982552 
	C114.287842,46.979813 115.346321,50.339920 116.797798,53.814301 
	C114.428589,53.814301 112.331802,53.814301 110.450272,53.814301 
	C106.821075,50.649551 108.758919,43.145889 101.347153,42.878773 
	C100.733482,46.493065 100.156204,49.893021 99.517334,53.655708 
	C97.560234,53.655708 95.530060,53.655708 93.270378,53.655708 
	C94.956970,42.720203 96.590317,31.957260 98.328445,21.211266 
	C98.457489,20.413500 99.338928,19.737434 100.303528,18.993256 
z"/>
<path fill="#BB011E" opacity="1.000000" stroke="none" 
	d="
M257.952026,47.141510 
	C258.814697,49.328892 259.531921,51.158516 260.257721,53.010094 
	C254.404770,54.818314 254.534119,54.729595 251.986511,49.310829 
	C250.717880,46.612442 250.963791,41.715542 245.253769,43.490749 
	C244.601990,46.867088 243.948807,50.250622 243.265610,53.789627 
	C241.409790,53.789627 239.791306,53.789627 237.352890,53.789627 
	C238.746033,44.844639 240.110245,36.080517 241.476807,27.316759 
	C241.655945,26.167927 241.871902,25.024343 242.028473,23.872576 
	C242.743118,18.615763 242.737686,18.615025 248.790695,19.613850 
	C247.923553,25.418228 247.053314,31.243330 245.974731,38.463005 
	C248.281738,37.344128 249.947510,36.946068 251.011749,35.922535 
	C252.548584,34.444450 253.653412,32.515896 254.935074,30.774031 
	C258.007233,26.598827 258.005463,26.597536 264.116394,27.596296 
	C262.385376,30.047729 261.070740,32.588932 259.136841,34.505161 
	C255.241135,38.365269 254.650055,42.299198 257.952026,47.141510 
z"/>
<path fill="#22AB4B" opacity="1.000000" stroke="none" 
	d="
M17.993658,54.011688 
	C9.872243,53.484413 7.425164,50.933144 8.117672,43.310860 
	C8.581213,38.208767 9.398627,33.095497 10.583678,28.112312 
	C12.421060,20.386045 21.268736,16.358583 28.319719,20.007975 
	C30.063292,20.910398 31.666536,22.810690 32.427715,24.631302 
	C32.943016,25.863825 31.873030,27.759140 31.512085,29.358015 
	C29.776743,28.679674 27.990351,28.105949 26.321404,27.291546 
	C24.853924,26.575453 23.450130,24.806107 22.140770,24.919323 
	C20.455687,25.065027 17.808426,26.336004 17.465096,27.625399 
	C15.978349,33.208958 15.038667,38.956818 14.266380,44.694237 
	C14.132648,45.687748 15.829891,47.904057 16.574778,47.857285 
	C18.851883,47.714306 21.172289,46.960659 23.294123,46.030170 
	C25.212202,45.189041 26.891239,43.802818 29.280256,42.268745 
	C29.969805,49.719116 26.024324,53.355858 17.993658,54.011688 
z"/>
<path fill="#F3F3F4" opacity="1.000000" stroke="none" 
	d="
M70.009796,29.903915 
	C73.906555,28.776049 77.508957,27.237051 81.130951,27.189497 
	C86.061920,27.124758 89.316833,31.449883 88.759384,36.313011 
	C88.439278,39.105610 87.932190,41.900951 87.222023,44.620029 
	C85.277779,52.064095 78.231178,56.277386 71.113625,53.550827 
	C68.637924,52.602448 65.538330,49.363716 65.397942,47.011417 
	C65.049698,41.176632 65.350456,35.004803 70.009796,29.903915 
M80.938629,44.929611 
	C81.324776,42.473057 82.153717,39.978508 81.947281,37.572800 
	C81.800415,35.861263 80.153023,32.840485 79.360390,32.899277 
	C77.214439,33.058449 74.591179,34.063412 73.251755,35.654392 
	C72.045670,37.086983 71.953560,39.746407 71.989845,41.854057 
	C72.025612,43.931160 72.839378,45.994865 73.311806,48.064449 
	C75.762497,47.269295 78.213181,46.474144 80.938629,44.929611 
z"/>
<path fill="#F3F4F4" opacity="1.000000" stroke="none" 
	d="
M181.057999,39.997353 
	C182.174316,29.039936 188.834732,26.112232 196.638916,27.092438 
	C200.895004,27.627003 203.924011,30.139450 203.812927,34.573982 
	C203.710678,38.655495 203.085083,42.881687 201.784958,46.739082 
	C199.743149,52.796989 192.458038,55.722240 186.084534,53.669647 
	C181.134933,52.075623 179.612061,48.078083 181.057999,39.997353 
M189.888870,33.565853 
	C188.896118,36.806221 187.491867,39.996857 187.091614,43.308834 
	C186.903473,44.865536 188.953033,48.180355 189.463226,48.078072 
	C191.760025,47.617611 194.424088,46.695095 195.872757,45.008801 
	C197.077454,43.606480 196.861221,40.919033 197.121597,38.782223 
	C197.840424,32.883163 196.562592,31.812754 189.888870,33.565853 
z"/>
<path fill="#22A94A" opacity="1.000000" stroke="none" 
	d="
M37.817982,36.050964 
	C40.599327,28.487267 47.123589,25.027588 54.110088,27.468277 
	C55.972462,28.118885 58.256794,29.690310 58.879898,31.380110 
	C61.204235,37.683491 59.560963,43.907364 56.357944,49.405968 
	C53.736160,53.906761 48.810764,54.397232 43.988255,53.943783 
	C38.899834,53.465324 35.651196,49.349144 36.316204,44.246075 
	C36.657543,41.626789 37.244041,39.039452 37.817982,36.050964 
M53.583630,35.859619 
	C52.049660,34.690529 50.297344,32.380379 49.033371,32.622250 
	C47.180119,32.976887 45.182083,34.873203 44.163704,36.641315 
	C43.160034,38.383907 43.233276,40.776157 42.953999,42.899155 
	C42.602749,45.569271 42.971817,48.558472 46.208279,48.287029 
	C48.283398,48.112991 50.862484,46.174873 51.969978,44.294048 
	C53.225163,42.162399 53.088634,39.211266 53.583630,35.859619 
z"/>
<path fill="#BA021F" opacity="1.000000" stroke="none" 
	d="
M210.644287,35.918015 
	C212.452118,29.852358 216.444290,27.218807 222.192078,26.999548 
	C229.959671,26.703241 233.497437,30.755322 232.231613,38.465603 
	C231.829498,40.914776 231.607025,43.431885 230.864731,45.779537 
	C228.667740,52.727962 220.439117,56.224388 213.859589,53.133240 
	C210.035614,51.336681 208.714859,48.140045 209.205658,44.132160 
	C209.527115,41.507095 210.079224,38.910278 210.644287,35.918015 
M224.609970,45.732403 
	C225.114273,43.133736 226.105362,40.507797 225.961777,37.945438 
	C225.855728,36.052887 224.270447,34.243225 223.344223,32.396633 
	C221.204163,33.548134 218.607971,34.287998 217.074722,35.987087 
	C215.937775,37.246979 215.861237,39.759018 215.897308,41.702423 
	C215.936447,43.810577 216.653244,45.906147 217.074524,48.007202 
	C219.436432,47.467190 221.798355,46.927177 224.609970,45.732403 
z"/>
<path fill="#2C3238" opacity="1.000000" stroke="none" 
	d="
M165.585083,47.910816 
	C162.971252,48.303036 160.722321,48.540707 157.539505,48.877079 
	C158.055817,45.135212 158.487335,42.007828 158.948105,38.668564 
	C162.505951,38.492996 166.518021,36.933689 168.113754,41.073154 
	C168.768097,42.770576 166.751572,45.497608 165.585083,47.910816 
z"/>
<path fill="#2A3037" opacity="1.000000" stroke="none" 
	d="
M162.379120,24.413410 
	C163.622528,24.372328 164.619812,24.067324 165.236084,24.422823 
	C166.972397,25.424404 168.552094,26.697479 170.193542,27.863529 
	C168.675140,29.546249 167.416519,31.675507 165.550674,32.761005 
	C164.217468,33.536625 162.069473,32.911682 159.513733,32.911682 
	C160.409042,29.813974 161.184036,27.132496 162.379120,24.413410 
z"/>
<path fill="#242A31" opacity="1.000000" stroke="none" 
	d="
M80.801254,45.304302 
	C78.213181,46.474144 75.762497,47.269295 73.311806,48.064449 
	C72.839378,45.994865 72.025612,43.931160 71.989845,41.854057 
	C71.953560,39.746407 72.045670,37.086983 73.251755,35.654392 
	C74.591179,34.063412 77.214439,33.058449 79.360390,32.899277 
	C80.153023,32.840485 81.800415,35.861263 81.947281,37.572800 
	C82.153717,39.978508 81.324776,42.473057 80.801254,45.304302 
z"/>
<path fill="#242A31" opacity="1.000000" stroke="none" 
	d="
M190.189545,33.330147 
	C196.562592,31.812754 197.840424,32.883163 197.121597,38.782223 
	C196.861221,40.919033 197.077454,43.606480 195.872757,45.008801 
	C194.424088,46.695095 191.760025,47.617611 189.463226,48.078072 
	C188.953033,48.180355 186.903473,44.865536 187.091614,43.308834 
	C187.491867,39.996857 188.896118,36.806221 190.189545,33.330147 
z"/>
<path fill="#1D282B" opacity="1.000000" stroke="none" 
	d="
M53.570412,36.238022 
	C53.088634,39.211266 53.225163,42.162399 51.969978,44.294048 
	C50.862484,46.174873 48.283398,48.112991 46.208279,48.287029 
	C42.971817,48.558472 42.602749,45.569271 42.953999,42.899155 
	C43.233276,40.776157 43.160034,38.383907 44.163704,36.641315 
	C45.182083,34.873203 47.180119,32.976887 49.033371,32.622250 
	C50.297344,32.380379 52.049660,34.690529 53.570412,36.238022 
z"/>
<path fill="#252129" opacity="1.000000" stroke="none" 
	d="
M224.385117,46.059784 
	C221.798355,46.927177 219.436432,47.467190 217.074524,48.007202 
	C216.653244,45.906147 215.936447,43.810577 215.897308,41.702423 
	C215.861237,39.759018 215.937775,37.246979 217.074722,35.987087 
	C218.607971,34.287998 221.204163,33.548134 223.344223,32.396633 
	C224.270447,34.243225 225.855728,36.052887 225.961777,37.945438 
	C226.105362,40.507797 225.114273,43.133736 224.385117,46.059784 
z"/>
</svg>