<svg version="1.1" id="Layer_1" xmlns="http://www.w3.org/2000/svg" xmlns:xlink="http://www.w3.org/1999/xlink" x="0px" y="0px"
	 width="100%" viewBox="0 0 222 222" enable-background="new 0 0 222 222" xml:space="preserve">
<path fill="#1D232A" opacity="1.000000" stroke="none" 
	d="
M150.000000,223.000000 
	C100.000000,223.000000 50.500008,223.000000 1.000007,223.000000 
	C1.000004,149.000000 1.000004,75.000015 1.000002,1.000017 
	C74.999992,1.000011 148.999985,1.000011 222.999969,1.000005 
	C222.999985,74.999985 222.999985,148.999969 223.000000,222.999969 
	C198.833328,223.000000 174.666672,223.000000 150.000000,223.000000 
M195.760696,143.118179 
	C197.428802,136.165039 197.716843,129.267242 194.709976,122.569359 
	C191.671677,115.801384 186.301193,111.696472 178.248749,109.667664 
	C179.962296,109.092552 180.586700,108.892960 181.204300,108.674225 
	C195.725357,103.531471 204.628113,89.787682 202.769012,75.386780 
	C201.122879,62.635601 191.054581,53.928783 175.053635,52.876785 
	C161.785751,52.004475 148.435577,52.426277 135.125137,52.128036 
	C131.826981,52.054138 131.401932,54.022652 131.009979,56.497375 
	C125.757866,89.657120 120.454300,122.808708 115.202965,155.968567 
	C114.283150,161.776794 113.544327,167.613693 112.782051,173.011505 
	C129.959549,173.011505 146.509308,174.266342 162.777740,172.664413 
	C179.603302,171.007629 190.812790,160.572540 195.760696,143.118179 
M39.456562,60.945797 
	C32.326908,67.071663 28.125654,74.975624 26.588476,84.066650 
	C23.257978,103.763603 19.987749,123.482811 17.345360,143.279999 
	C15.434987,157.592819 23.213934,169.579926 36.396900,173.538193 
	C49.167278,177.372574 61.887829,176.555359 73.848358,170.554749 
	C86.151459,164.382233 92.674889,153.953690 94.772461,139.698776 
	C91.340065,139.698776 88.526497,139.868942 85.740349,139.664841 
	C79.068810,139.176117 73.882202,139.399551 70.953865,147.683640 
	C67.995750,156.052002 56.379658,159.326782 47.274521,156.337265 
	C39.885719,153.911270 37.279305,148.294846 38.940983,137.412384 
	C41.479038,120.790482 44.135567,104.185127 46.955605,87.609123 
	C47.503376,84.389374 48.599072,81.095581 50.188190,78.253098 
	C54.191059,71.093140 63.103313,67.693085 71.870110,69.502090 
	C79.195274,71.013626 81.446777,74.115623 82.949936,83.849205 
	C83.126236,84.990814 85.076668,86.594734 86.315193,86.701469 
	C90.448647,87.057671 94.639320,86.679855 98.794792,86.871338 
	C102.513161,87.042671 103.729668,85.324631 103.905220,81.835030 
	C104.593468,68.154274 96.805534,56.300701 83.536354,52.726898 
	C67.986946,48.538952 53.151081,50.253067 39.456562,60.945797 
z"/>
<path fill="#CF0020" opacity="1.000000" stroke="none" 
	d="
M195.640076,143.513245 
	C190.812790,160.572540 179.603302,171.007629 162.777740,172.664413 
	C146.509308,174.266342 129.959549,173.011505 112.782051,173.011505 
	C113.544327,167.613693 114.283150,161.776794 115.202965,155.968567 
	C120.454300,122.808708 125.757866,89.657120 131.009979,56.497375 
	C131.401932,54.022652 131.826981,52.054138 135.125137,52.128036 
	C148.435577,52.426277 161.785751,52.004475 175.053635,52.876785 
	C191.054581,53.928783 201.122879,62.635601 202.769012,75.386780 
	C204.628113,89.787682 195.725357,103.531471 181.204300,108.674225 
	C180.586700,108.892960 179.962296,109.092552 178.248749,109.667664 
	C186.301193,111.696472 191.671677,115.801384 194.709976,122.569359 
	C197.716843,129.267242 197.428802,136.165039 195.640076,143.513245 
M147.454346,156.722183 
	C150.779968,156.572571 154.135010,156.652252 157.425720,156.230377 
	C167.332794,154.960205 174.096680,148.327866 175.778427,138.515213 
	C177.566803,128.080475 172.288803,120.709885 161.745041,119.678795 
	C155.965668,119.113625 150.091339,119.258560 144.278763,119.513939 
	C143.121536,119.564774 141.298569,121.432716 141.061249,122.701843 
	C139.502289,131.038788 138.273712,139.438187 136.982925,147.824219 
	C136.565598,150.535690 136.285278,153.268234 135.850189,156.722153 
	C139.894165,156.722153 143.193192,156.722153 147.454346,156.722183 
M146.185455,102.215927 
	C152.320709,102.174477 158.489868,102.526802 164.583542,102.002304 
	C174.543732,101.145012 181.421188,93.098282 181.377289,83.096870 
	C181.346466,76.073715 177.636002,70.973854 170.721420,70.314339 
	C163.699295,69.644562 156.563522,70.166428 149.190414,70.166428 
	C148.063812,77.484840 146.873825,84.491631 145.948792,91.533211 
	C145.494446,94.991982 145.531174,98.515259 146.185455,102.215927 
z"/>
<path fill="#22AF4C" opacity="1.000000" stroke="none" 
	d="
M39.733284,60.720680 
	C53.151081,50.253067 67.986946,48.538952 83.536354,52.726898 
	C96.805534,56.300701 104.593468,68.154274 103.905220,81.835030 
	C103.729668,85.324631 102.513161,87.042671 98.794792,86.871338 
	C94.639320,86.679855 90.448647,87.057671 86.315193,86.701469 
	C85.076668,86.594734 83.126236,84.990814 82.949936,83.849205 
	C81.446777,74.115623 79.195274,71.013626 71.870110,69.502090 
	C63.103313,67.693085 54.191059,71.093140 50.188190,78.253098 
	C48.599072,81.095581 47.503376,84.389374 46.955605,87.609123 
	C44.135567,104.185127 41.479038,120.790482 38.940983,137.412384 
	C37.279305,148.294846 39.885719,153.911270 47.274521,156.337265 
	C56.379658,159.326782 67.995750,156.052002 70.953865,147.683640 
	C73.882202,139.399551 79.068810,139.176117 85.740349,139.664841 
	C88.526497,139.868942 91.340065,139.698776 94.772461,139.698776 
	C92.674889,153.953690 86.151459,164.382233 73.848358,170.554749 
	C61.887829,176.555359 49.167278,177.372574 36.396900,173.538193 
	C23.213934,169.579926 15.434987,157.592819 17.345360,143.279999 
	C19.987749,123.482811 23.257978,103.763603 26.588476,84.066650 
	C28.125654,74.975624 32.326908,67.071663 39.733284,60.720680 
z"/>
<path fill="#21222A" opacity="1.000000" stroke="none" 
	d="
M146.973267,156.722168 
	C143.193192,156.722153 139.894165,156.722153 135.850189,156.722153 
	C136.285278,153.268234 136.565598,150.535690 136.982925,147.824219 
	C138.273712,139.438187 139.502289,131.038788 141.061249,122.701843 
	C141.298569,121.432716 143.121536,119.564774 144.278763,119.513939 
	C150.091339,119.258560 155.965668,119.113625 161.745041,119.678795 
	C172.288803,120.709885 177.566803,128.080475 175.778427,138.515213 
	C174.096680,148.327866 167.332794,154.960205 157.425720,156.230377 
	C154.135010,156.652252 150.779968,156.572571 146.973267,156.722168 
z"/>
<path fill="#1F232A" opacity="1.000000" stroke="none" 
	d="
M145.765564,102.112640 
	C145.531174,98.515259 145.494446,94.991982 145.948792,91.533211 
	C146.873825,84.491631 148.063812,77.484840 149.190414,70.166428 
	C156.563522,70.166428 163.699295,69.644562 170.721420,70.314339 
	C177.636002,70.973854 181.346466,76.073715 181.377289,83.096870 
	C181.421188,93.098282 174.543732,101.145012 164.583542,102.002304 
	C158.489868,102.526802 152.320709,102.174477 145.765564,102.112640 
z"/>
</svg>